<svg xmlns="http://www.w3.org/2000/svg" viewBox="0 0 181.641 256" clip-path="url(#a)" width="320" height="450"><defs><clipPath id="a" clipPathUnits="objectBoundingBox"><path d="M0 0h181.641v256H0z"/></clipPath></defs><path fill="transparent" d="M0 0h181.641v256H0z"/><path d="M174-50l-384 178 382 184z" fill="#6D3A2D" fill-opacity=".67"/><path d="M-38-31l74 43 246-6z" fill="#FCFCFB" fill-opacity=".98"/><path d="M186 248l-200-2 180 136z" fill="#FDF6F6"/><path d="M-74 159l200-41 40 40z" fill="#FCD3C2" fill-opacity=".68"/><path d="M63 126L59 8 6 74z" fill="#1D190B" fill-opacity=".51"/><path d="M10 229l-3 18h57z" fill="#E5394B" fill-opacity=".78"/><path d="M99 199l54 13-124-3z" fill="#E6ECF0" fill-opacity=".8"/><path d="M160 156l16-91-65 34z" fill="#004109" fill-opacity=".56"/><path d="M46 237l143-15-160-3z" fill="#03020F" fill-opacity=".67"/><path d="M7 13l40-2L9 25z" fill="#313121" fill-opacity=".57"/><path d="M133 202l21 21-41-23z" fill="#FFF" fill-opacity=".51"/><path d="M172 191l-33 24-3-67z" fill="#290008" fill-opacity=".6"/><path d="M9 287V45l-64-221z" fill="#FFF"/><path d="M135 199l-62 6-68-67z" fill="#8D0016" fill-opacity=".53"/><path d="M35 158l15 46-42 2z" fill="#1C091A" fill-opacity=".69"/><path d="M127 46l-15-29-51 22z" fill="#021E23" fill-opacity=".56"/><path d="M80 152l-12 4 7 13z" fill="#000016" fill-opacity=".58"/><path d="M91 202l64 9-58 10z" fill="#F4F9FB" fill-opacity=".77"/><path d="M181 219l-33-11 19-10z" fill="#FAFFFF" fill-opacity=".5"/><path d="M168 203l7-36-33-18z" fill="#FF001A" fill-opacity=".55"/><path d="M55 131L10 44v111z" fill="#50572B" fill-opacity=".6"/><path d="M93 189l-21-43 32 12z" fill="#FFF" fill-opacity=".58"/><path d="M107 169l-2 32-37 3z" fill="#002732" fill-opacity=".56"/><path d="M66 167l-28-27 44-32z" fill="#FFF9EF" fill-opacity=".56"/><path d="M47 146L8 161l2 47z" fill="#E9081F" fill-opacity=".55"/><path d="M164 235l-77-4 87-9z" fill="#000816" fill-opacity=".48"/><path d="M138 213l-9-7 4 24z" fill="#1C242C" fill-opacity=".6"/><path d="M112 204l-9-44 43-3z" fill="#CF1B2B" fill-opacity=".82"/><path d="M121 236l-36 13-43-18z" fill="#FF3A58" fill-opacity=".57"/><path d="M56 234l-48-3 11-12z" fill="#2B3940" fill-opacity=".72"/><path d="M30 153l16-6 36 56z" fill="#FB192C" fill-opacity=".54"/><path d="M8 25l9 45 36-47z" fill="#852B2B" fill-opacity=".61"/><path d="M108 154l30-31-1 38z" fill="#FFF" fill-opacity=".64"/><path d="M45 162l5 24-40-8z" fill="#001921" fill-opacity=".5"/><path d="M101 165l-15 17-8-21z" fill="#F9FFFF" fill-opacity=".71"/><path d="M26 101l-3-24-5 30z" fill="#F1D7ED" fill-opacity=".61"/><path d="M-31-37L9 45l1-30z" fill="#F7F8F8" fill-opacity=".85"/><path d="M122 48l-54-3 28 25z" fill="#FFC5A0" fill-opacity=".71"/><path d="M68 99l1 27-28-69z" fill="#072C15" fill-opacity=".57"/><path d="M152 41l-14-1 9-29z" fill="#6B000C" fill-opacity=".56"/><path d="M115 149L54 74l68 2z" fill="#E0A07E" fill-opacity=".68"/><path d="M84 20L53 63l13 6z" fill="#0B2C2D" fill-opacity=".52"/><path d="M163 231l-10 32h19z" fill="#FFF" fill-opacity=".69"/><path d="M44 164l29-1-9 43z" fill="#FB2134" fill-opacity=".62"/><path d="M55 196l-20 1 20-19z" fill="#FFFCFF" fill-opacity=".41"/><path d="M17 195l7-38-15 14z" fill="#F81323" fill-opacity=".6"/><path d="M160 233H1l135 15z" fill="#FA4C5E" fill-opacity=".75"/><path d="M85 203l-15-35 24 15z" fill="#122732" fill-opacity=".7"/><path d="M116 45l33 91 11-73z" fill="#013608" fill-opacity=".34"/><path d="M140 199l33 3-43-41z" fill="#000516" fill-opacity=".44"/></svg>