<svg xmlns="http://www.w3.org/2000/svg" viewBox="0 0 189.377 256" clip-path="url(#a)" width="320" height="450"><defs><clipPath id="a" clipPathUnits="objectBoundingBox"><path d="M0 0h189.377v256H0z"/></clipPath></defs><path fill="transparent" d="M0 0h189.377v256H0z"/><path d="M6 103l220 62L4 268z" fill="#505D36" fill-opacity=".76"/><path d="M78-83L42 193l144 21z" fill="#4B3903" fill-opacity=".49"/><path d="M16 60L0 2l304 14z" fill="#606C3C" fill-opacity=".5"/><path d="M157 80l23-44 4 57z" fill="#2F290C" fill-opacity=".57"/><path d="M184 247l-2-87-101 86z" fill="#416C3B" fill-opacity=".44"/><path d="M122 281L15 217l79-14z" fill="#C7D9C4" fill-opacity=".75"/><path d="M157 203l-49-4-15 34z" fill="#DDECDD" fill-opacity=".84"/><path d="M-24 185L-42-6 81 123z" fill="#FDF6D7" fill-opacity=".68"/><path d="M60 140l-20 77-41-47z" fill="#00140D" fill-opacity=".54"/><path d="M129 1L45 42 44-7z" fill="#ECF9F1" fill-opacity=".62"/><path d="M50 66l26 81 147-18z" fill="#F3B67C" fill-opacity=".55"/><path d="M11 230l-25 80 76-70z" fill="#FFDBDB" fill-opacity=".7"/><path d="M122 44H59l37-25z" fill-opacity=".53"/><path d="M121 134l76 34-69-114z" fill="#EBEFCD" fill-opacity=".69"/><path d="M36 16l10 37-37 4z" fill="#002100" fill-opacity=".44"/><path d="M59 55l3 19 22-59z" fill="#10100F" fill-opacity=".54"/><path d="M116 148l-55-6 41 72z" fill="#041418" fill-opacity=".64"/><path d="M56 201l-10 32-16-16z" fill="#FFF" fill-opacity=".56"/><path d="M119 127l51 40-57-13z" fill="#15231E" fill-opacity=".7"/><path d="M193 211l-21-81 70 46z" fill="#EEECD8"/><path d="M5 168l50 28-50 45z" fill="#2E4622" fill-opacity=".54"/><path d="M77 244l-61-15 78-2z" fill="#3C7426" fill-opacity=".39"/><path d="M45 41l18-3-9 68z" fill="#FBFCFA" fill-opacity=".68"/><path d="M60 17L21 5h54z" fill="#56974C" fill-opacity=".51"/><path d="M142 227l34 8h-62z" fill="#1C7A0E" fill-opacity=".49"/><path d="M9 250l-5-19 13-3z" fill="#E9594B" fill-opacity=".7"/><path d="M68 42l64 3-63 108z" fill="#D05924" fill-opacity=".36"/><path d="M184 232l-6-12-7 26z" fill="#C31913" fill-opacity=".51"/><path d="M160 247h18l-16-27z" fill="#354B35" fill-opacity=".59"/><path d="M187 5l-20 16-3-16z" fill="#674805" fill-opacity=".43"/><path d="M22 249l8-47v43z" fill="#B51403" fill-opacity=".57"/><path d="M51 229l19-36 8 11z" fill="#F1FFFC" fill-opacity=".48"/><path d="M168 202h-23l4-58z" fill="#021F20" fill-opacity=".47"/><path d="M70 28l31-6-39 35z" fill="#141D1B" fill-opacity=".53"/><path d="M185 124l11-41-27 3z" fill="#FEFFFF" fill-opacity=".67"/><path d="M193 25l-36 52-20-79z" fill="#DED196" fill-opacity=".5"/><path d="M154 159l29 18-8-22z" fill-opacity=".49"/><path d="M158 202h-16l11 30z" fill="#FFF" fill-opacity=".49"/><path d="M109 28l56-22L62 4z" fill="#C3C6A9" fill-opacity=".77"/><path d="M81 41l43-3-21-13z" fill="#151A15" fill-opacity=".54"/><path d="M78 158l-22-8 8-26z" fill="#21241F" fill-opacity=".76"/><path d="M105 171l38 23-15-47z" fill="#72D094" fill-opacity=".43"/><path d="M171 248l5-35-11 3z" fill="#F6E2CD" fill-opacity=".54"/><path d="M166 214l-10-3 2-20z" fill="#0E2E0F" fill-opacity=".58"/><path d="M125 208l-21-39 33 28z" fill="#55B06A" fill-opacity=".54"/><path d="M166 82l6-11-3-39z" fill="#D7C9A4" fill-opacity=".84"/><path d="M57 203l-14-46-15 44z" fill="#101617" fill-opacity=".53"/><path d="M177 253l3-20 3 7z" fill="#290104" fill-opacity=".48"/><path d="M-26 123l31 58-1-42z" fill="#FDFDFB"/><path d="M166 214h-47l40 15z" fill="#FFFFFB" fill-opacity=".52"/></svg>