<svg xmlns="http://www.w3.org/2000/svg" viewBox="0 0 181.659 256" clip-path="url(#a)" width="320" height="450"><defs><clipPath id="a" clipPathUnits="objectBoundingBox"><path d="M0 0h181.659v256H0z"/></clipPath></defs><path fill="transparent" d="M0 0h181.659v256H0z"/><path d="M118 334L-155 8l382 4z" fill="#88642B" fill-opacity=".71"/><path d="M0-1l12 105L0 206z" fill="#F6F7F4"/><path d="M138 200l-221 25 410 91z" fill="#D5D2D0" fill-opacity=".91"/><path d="M172 62l-1 84-72-40z" fill="#083300" fill-opacity=".58"/><path d="M55 13L31 85l93-55z" fill="#0B190B" fill-opacity=".59"/><path d="M110 21l37 61-39-12z" fill="#242413" fill-opacity=".76"/><path d="M175 163L291 26 170-18z" fill="#F7F9F9" fill-opacity=".99"/><path d="M142 82L9 105v34z" fill="#5D5C25" fill-opacity=".7"/><path d="M47 107L7 177l203-28z" fill="#ED6900" fill-opacity=".57"/><path d="M79 210L58 97l-7 105z" fill="#FFFF41" fill-opacity=".66"/><path d="M130 207l-5-101-25 99z" fill="#FFEE2B" fill-opacity=".78"/><path d="M148 232l-19 15 25-1z" fill="#00642D" fill-opacity=".57"/><path d="M33 128L6 141l14 55z" fill="#FFF11B" fill-opacity=".79"/><path d="M201 68L84 16l51-63z" fill="#B5E0FF" fill-opacity=".59"/><path d="M31 5L7 76l99 89z" fill="#244331" fill-opacity=".43"/><path d="M103 231l-5 16-60-2z" fill="#6D737B" fill-opacity=".57"/><path d="M37 212l-8 16-21-13z" fill="#AA5009" fill-opacity=".57"/><path d="M7 228l4-91-45-79z" fill="#FFFFF4" fill-opacity=".92"/><path d="M57 206l-48-1 37-20z" fill="#F30000" fill-opacity=".57"/><path d="M110 18l-90-5L5 44z" fill="#4A7981" fill-opacity=".69"/><path d="M126 210l5-92 44 78z" fill="#DE2D0B" fill-opacity=".43"/><path d="M20 194l2-26 52 8z" fill="#FED8EB" fill-opacity=".5"/><path d="M147 129l5 78 24-62z" fill="#FFF718" fill-opacity=".74"/><path d="M66 203l-43 7 95 3z" fill="#FFFFEC" fill-opacity=".79"/><path d="M117 135l-1-46-50 57z" fill="#6C3521" fill-opacity=".69"/><path d="M171 236l-12-4 7 21z" fill="#CF0000" fill-opacity=".48"/><path d="M72 180l30-42 2 84z" fill="#F00036" fill-opacity=".48"/><path d="M2 42l18-30-58-10z" fill="#FFFFCD" fill-opacity=".83"/><path d="M73 68l40-23-46 2z" fill="#F2A280" fill-opacity=".74"/><path d="M134 239l-21 9-2-17z" fill="#262D37" fill-opacity=".44"/><path d="M48 173l3-52-24 10z" fill="#E10025" fill-opacity=".77"/><path d="M117 74l30-34 26 75z" fill="#516C28" fill-opacity=".7"/><path d="M124 221l18-9-41 7z" fill="#575E64" fill-opacity=".53"/><path d="M91 177l-18 25 16 5z" fill="#FA0315" fill-opacity=".51"/><path d="M173 112l-1 96 67-83z" fill="#FAFAF3" fill-opacity=".98"/><path d="M10 42l22-17-21 3z" fill="#000A22" fill-opacity=".57"/><path d="M69 144l-5 35h19z" fill="#FFF63A" fill-opacity=".61"/><path d="M4 238l9 10 21-9z" fill="#282C31" fill-opacity=".42"/><path d="M63 76L42 50l46 19z" fill="#250C00" fill-opacity=".57"/><path d="M24 207l-15-5 2-36z" fill="#E20000" fill-opacity=".57"/><path d="M10 8l7 4-8 21z" fill="#E3D601" fill-opacity=".67"/><path d="M154 192l-25-23 3 33z" fill="#31778B" fill-opacity=".47"/><path d="M120 220h-17l-9 58z" fill="#FFF" fill-opacity=".73"/><path d="M3 213l76 8 55-8z" fill="#666462" fill-opacity=".54"/><path d="M-96-32L9 97V10z" fill="#FFFFFE" fill-opacity=".98"/><path d="M172 145l-8 28 8 19z" fill="#FFE300" fill-opacity=".54"/><path d="M101 135l17-24-56 16z" fill="#3C2410" fill-opacity=".49"/><path d="M2 247l282 56-105-56z" fill="#FFF" fill-opacity=".98"/><path d="M109 232l152 4-99-36z" fill="#FFF" fill-opacity=".85"/><path d="M46 234l-4 13 20-12z" fill="#45515A" fill-opacity=".48"/></svg>