<svg xmlns="http://www.w3.org/2000/svg" viewBox="0 0 181.641 256" clip-path="url(#a)" width="320" height="450"><defs><clipPath id="a" clipPathUnits="objectBoundingBox"><path d="M0 0h181.641v256H0z"/></clipPath></defs><path fill="transparent" d="M0 0h181.641v256H0z"/><path d="M173 253l-2-420L-41 93z" fill="#7A8DA6" fill-opacity=".8"/><path d="M56 41l86 31-32-59z" fill="#2E170F" fill-opacity=".65"/><path d="M178 250l-196-4 82-137z" fill="#B1CEDE"/><path d="M152 204L53 40l100 95z" fill="#1E001D" fill-opacity=".31"/><path d="M97 160L50 46l92 8z" fill="#A46B50" fill-opacity=".74"/><path d="M61 220l32-7-8-5z" fill="#310D00" fill-opacity=".46"/><path d="M68 187l-26 8 10-33z" fill="#2F70A5" fill-opacity=".51"/><path d="M142 176l12 22-29 36z" fill="#145C8F" fill-opacity=".54"/><path d="M79 14L-2 1l305-3z" fill="#F3F7FB" fill-opacity=".99"/><path d="M105 217H15l-5-9z" fill="#412B23" fill-opacity=".56"/><path d="M60 33l13-22 79-1z" fill="#5886C0" fill-opacity=".54"/><path d="M132 156l-27 9 30 31z" fill="#FCFDFF" fill-opacity=".53"/><path d="M183 134l-28 13v47z" fill="#FBFAFE" fill-opacity=".71"/><path d="M41 234l82-1 13-37z" fill="#FFFEFD" fill-opacity=".83"/><path d="M10 27l-43-6L8 167z" fill="#FCFDFE" fill-opacity=".98"/><path d="M183 227l-1-58-23 69z" fill="#FCFAF9" fill-opacity=".8"/><path d="M63 132l38 27-35 52z" fill="#FAFAFC" fill-opacity=".74"/><path d="M161 38l-36-10 29 29z" fill="#00B3F9" fill-opacity=".61"/><path d="M16 150L80 21 7 10z" fill="#68A4D6" fill-opacity=".69"/><path d="M99 75l-10 27-27-20z" fill="#FFA77E" fill-opacity=".57"/><path d="M125 120l-5-18 31 30z" fill="#A8D7FF" fill-opacity=".52"/><path d="M174 91l-47-19 9-34z" fill="#87ADDA" fill-opacity=".78"/><path d="M47 231l114 15-154 1z" fill="#0098D6" fill-opacity=".55"/><path d="M143 171l-53-13 70 28z" fill="#D9F5FF" fill-opacity=".53"/><path d="M159 14l-25 5 34 10z" fill="#074B9F" fill-opacity=".75"/><path d="M22 114l23 48-12 39z" fill="#F9F9FD" fill-opacity=".58"/><path d="M172 231v21l-9-16z" fill="#FF2A0F" fill-opacity=".52"/><path d="M166 234l-28 11-72-11z" fill="#27A2D0" fill-opacity=".79"/><path d="M160 200l-11 9 20-4z" fill="#FFF" fill-opacity=".49"/><path d="M68 116h53l-39 22z" fill="#955E3E" fill-opacity=".6"/><path d="M134 45l-11 35-9-55z" fill="#000818" fill-opacity=".5"/><path d="M36 153l26-6 2 14z" fill="#3AA6E1" fill-opacity=".54"/><path d="M123 95L87 68l48-2z" fill="#633720" fill-opacity=".42"/><path d="M9 186v-56l25 79z" fill="#4581BC" fill-opacity=".38"/><path d="M125 155l30 6-15-38z" fill="#0043B0" fill-opacity=".57"/><path d="M126 233l11-16-4-10z" fill="#310" fill-opacity=".61"/><path d="M137 212l5 42 10-47z" fill="#FDFDFB" fill-opacity=".54"/><path d="M45 181l16-3-16 9z" fill="#012455" fill-opacity=".56"/><path d="M139 205l3 13-16-17z" fill="#FFF" fill-opacity=".5"/><path d="M118 91l3 37-20 18z" fill="#814F2B" fill-opacity=".52"/><path d="M39 236l-30-7v17z" fill="#21A9E2" fill-opacity=".54"/><path d="M67 209l44 9-100-7z" fill="#6A6261" fill-opacity=".59"/><path d="M70 55l39-5-13 24z" fill="#FFAC7D" fill-opacity=".48"/><path d="M68 30l35-16-38 52z" fill="#271B14" fill-opacity=".35"/><path d="M110 170l-14 24-36-8z" fill="#90576A" fill-opacity=".24"/><path d="M111 25l32 16-36-34z" fill="#72A2D9" fill-opacity=".6"/><path d="M163 214l-12 1v15z" fill="#4C747E" fill-opacity=".48"/><path d="M111 149l-16 7 26-22z" fill="#002A92" fill-opacity=".52"/><path d="M43 233l18 1-32-18z" fill="#FFF" fill-opacity=".44"/><path d="M62 209l5-14 43 14z" fill="#FFF" fill-opacity=".53"/></svg>