<svg xmlns="http://www.w3.org/2000/svg" viewBox="0 0 320 451" clip-path="url(#a)" width="320" height="450"><defs><clipPath id="a" clipPathUnits="objectBoundingBox"><path d="M0 0h320v450H0z"/></clipPath></defs><path fill="transparent" d="M0 0h320v451H0z"/><path d="M252 354L7 363l197-494z" fill="#5C4535" fill-opacity=".61"/><path d="M297 252l-27 83 21 32z" fill="#04070B" fill-opacity=".61"/><path d="M302 195l2-179-407 10z" fill="#37606E" fill-opacity=".36"/><path d="M-76 413l349-2 13 33z" fill="#202829" fill-opacity=".7"/><path d="M5 125l59 85-1-129z" fill="#1E3D50" fill-opacity=".53"/><path d="M43 258L7 291l52-14z" fill="#0C0E12" fill-opacity=".6"/><path d="M305 369l-26 58-35-69z" fill="#6A7472" fill-opacity=".68"/><path d="M186 368H20l-9 150z" fill="#2B272D" fill-opacity=".34"/><path d="M304 280l-19 29-6-45z" fill-opacity=".67"/><path d="M101 377l56-109-66-40z" fill="#000107" fill-opacity=".68"/><path d="M186 436l96-2 15 28z" fill="#F8F9F9"/><path d="M32 269l99-55L89 18z" fill="#C1DBEA" fill-opacity=".99"/><path d="M99 299L49 179l7 234z" fill="#E0E7E9" fill-opacity=".84"/><path d="M216 212l-27 153 53-73z" fill="#090A0E" fill-opacity=".8"/><path d="M32 216l36-47-59-8z" fill="#192F3C" fill-opacity=".3"/><path d="M197 279l-32 37-28-36z" fill="#ECFAFA" fill-opacity=".65"/><path d="M178 383v-16l-78 13z" fill="#404042" fill-opacity=".7"/><path d="M192 257l3 99 44-5z" fill="#1D1E22" fill-opacity=".86"/><path d="M238 47L180-79 137 35z" fill="#C3ECFF" fill-opacity=".85"/><path d="M124 212l81 2-27-59z" fill="#9A572C" fill-opacity=".68"/><path d="M145 434l-133 1 12-24z" fill="#535357" fill-opacity=".98"/><path d="M249 390l-22 14v-44z" fill-opacity=".56"/><path d="M246 36l49 27-44 28z" fill="#564B37" fill-opacity=".45"/><path d="M169 31l54 50-97-9z" fill="#2B1501" fill-opacity=".8"/><path d="M62 74L48 93l1-42z" fill="#E00013" fill-opacity=".72"/><path d="M54 345l-11-90-1 112z" fill="#0A0F15" fill-opacity=".73"/><path d="M24 417h21l-5 14z" fill="#E0E0E3" fill-opacity=".55"/><path d="M52 173l6-29-19 9z" fill-opacity=".56"/><path d="M204 371l-70-5 33-54z" fill="#FBFEFE" fill-opacity=".62"/><path d="M95 359l48-62v60z" fill="#212429" fill-opacity=".84"/><path d="M125 256L236 99 125 68z" fill="#FE9253" fill-opacity=".49"/><path d="M58 415l6 16 30-8z" fill="#E8E8EA" fill-opacity=".48"/><path d="M297 296l-14-19v79z" fill-opacity=".6"/><path d="M310 414l-18 28v-31z" fill="#CC0500" fill-opacity=".64"/><path d="M31 273l17 39 6-55z" fill="#151417" fill-opacity=".7"/><path d="M478 191l-267 46-3-101z" fill="#D0E8F6" fill-opacity=".68"/><path d="M236 238l3 35-93 7z" fill="#1A1617" fill-opacity=".91"/><path d="M325 405l-57 8-5-12z" fill="#EAEBEB" fill-opacity=".79"/><path d="M65 385l99-13-144-4z" fill="#353436" fill-opacity=".53"/><path d="M94 359l-45 11 46-58z" fill="#EEEFE9" fill-opacity=".89"/><path d="M17 79l18 80 6-122z" fill="#628C87" fill-opacity=".72"/><path d="M291 356l-7-40-7 39z" fill-opacity=".53"/><path d="M103 368l-18-6 32-6z" fill="#FFF" fill-opacity=".5"/><path d="M274 43v41l-7-22z" fill="#FEFAF7" fill-opacity=".73"/><path d="M276 26l-19-9-12 23z" fill="#4A4941" fill-opacity=".54"/><path d="M216 196l-97 42 68 32z" fill="#FFA162" fill-opacity=".5"/><path d="M227 159l-17 13 14-94z" fill="#702D10" fill-opacity=".53"/><path d="M-13 371l52-3-1-83z" fill="#EFF5F9" fill-opacity=".77"/><path d="M94 346l9 14-6-34z" fill="#111B23" fill-opacity=".57"/><path d="M17 22l-2 89-83-178z" fill="#FDFEFE"/></svg>