<svg xmlns="http://www.w3.org/2000/svg" viewBox="0 0 181.641 256" clip-path="url(#a)" width="320" height="451"><defs><clipPath id="a" clipPathUnits="objectBoundingBox"><path d="M0 0h181.641v256H0z"/></clipPath></defs><path fill="#FFF" d="M0 0h181.641v256H0z"/><path d="M-280 132L176-53l-3 318z" fill="#3B4B3B" fill-opacity=".68"/><path d="M-95 356L8 210 7-4z" fill="#F9FBF7"/><path d="M190 210l-73 184-135-184z" fill="#BDC3C8" fill-opacity=".84"/><path d="M125 194L1 7l176 3z" fill="#505622" fill-opacity=".54"/><path d="M27 248l20-26-39 23z" fill="#163D50" fill-opacity=".57"/><path d="M74 43l-18 59 43-60z" fill="#FFC6B2" fill-opacity=".52"/><path d="M99 84L53 68l20 78z" fill="#D08D6A" fill-opacity=".62"/><path d="M30 8l151-1-44-210z" fill="#F9FBEE" fill-opacity=".97"/><path d="M11 170l33-9-34-39z" fill="#D2DAF1" fill-opacity=".68"/><path d="M65 206l-43-82 209 49z" fill="#0018FC" fill-opacity=".29"/><path d="M92 45l12-38 37 52z" fill="#040004" fill-opacity=".54"/><path d="M97 162l35-98L90 8z" fill="#502523" fill-opacity=".48"/><path d="M167 247l-75-4 63-2z" fill-opacity=".46"/><path d="M112 201l60-80-19 75z" fill="#89A9D7" fill-opacity=".56"/><path d="M47 247l35-6-68 2z" fill="#000003" fill-opacity=".5"/><path d="M22 129l-60 47 73-26z" fill="#FEFEFC" fill-opacity=".48"/><path d="M10 134L9 4l61 108z" fill="#588D25" fill-opacity=".61"/><path d="M113 121l-10 85 61-75z" fill="#323B8F" fill-opacity=".76"/><path d="M8 199l26 32-20-79z" fill="#1A2E95" fill-opacity=".48"/><path d="M144 207l30 3-4-48z" fill="#1F1C67" fill-opacity=".66"/><path d="M131 223l9-15 71 20z" fill="#FFF" fill-opacity=".48"/><path d="M48 72l18-45 40-15z" fill="#1B1422" fill-opacity=".58"/><path d="M-29-19l15 68L16-2z" fill="#FEFFFC" fill-opacity=".79"/><path d="M175 242v6l-24-7z" fill-opacity=".5"/><path d="M28 250l153-4L81 366z" fill="#FFFFFB" fill-opacity=".93"/><path d="M176 140L169 4l-57 104z" fill="#629339" fill-opacity=".7"/><path d="M105 19l23 18-3 42z" fill="#0F0D11" fill-opacity=".83"/><path d="M70 219l-53 23-6-24z" fill="#689CB5" fill-opacity=".62"/><path d="M69 248l22-31 52 29z" fill="#5C6161" fill-opacity=".42"/><path d="M39 160l13 36-27-4z" fill="#B0B3EC" fill-opacity=".54"/><path d="M73 211l-15-13h40z" fill="#A93425" fill-opacity=".48"/><path d="M67 110l-13 20 22 26z" fill="#D4B8BF" fill-opacity=".47"/><path d="M176 160l-7-26-47 55z" fill="#7C98C1" fill-opacity=".82"/><path d="M154 242l59-10-87-3z" fill="#FFFCFA" fill-opacity=".64"/><path d="M122 231l3-6 49 2z" fill="#100C36" fill-opacity=".6"/><path d="M62 37l61 4-38-28z" fill="#1B1923" fill-opacity=".56"/><path d="M7 248l4-7 65 1z" fill="#2C283A" fill-opacity=".52"/><path d="M132 230l3 11-5-5z" fill="#130C13" fill-opacity=".52"/><path d="M-13 247l93 1 80 53z" fill="#FCFDFA" fill-opacity=".98"/><path d="M99 87l-14 7 7-18z" fill="#FFD8E3" fill-opacity=".41"/><path d="M43 166l-19 16-5-16z" fill="#B6A1C7" fill-opacity=".54"/><path d="M112 194l11-12-9 22z" fill="#38286A" fill-opacity=".53"/><path d="M66 200l-18-31 75 16z" fill="#29398E" fill-opacity=".57"/><path d="M65 82L53 56l11-10z" fill="#130710" fill-opacity=".61"/><path d="M68 75l65-5-56-3z" fill="#412A1E" fill-opacity=".62"/><path d="M36 198l22-4-8-19z" fill="#A0B8EA" fill-opacity=".58"/><path d="M153 228l23 3-5-6z" fill="#060027" fill-opacity=".48"/><path d="M94 90l-29 46 32 18z" fill="#93532F" fill-opacity=".47"/><path d="M83 36v26L64 73z" fill="#FFDAD1" fill-opacity=".4"/><path d="M60 219l-7-11 83 3z" fill="#F0DDE0" fill-opacity=".47"/></svg>