<svg xmlns="http://www.w3.org/2000/svg" viewBox="0 0 181.641 256" clip-path="url(#a)" width="320" height="450"><defs><clipPath id="a" clipPathUnits="objectBoundingBox"><path d="M0 0h181.641v256H0z"/></clipPath></defs><path fill="#FFF" d="M0 0h181.641v256H0z"/><path d="M170-113l5 365-365-29z" fill="#132429" fill-opacity=".6"/><path d="M10 303l-62-405L9 31z" fill="#F6F7F6"/><path d="M66 50l22-70-52-11z" fill="#E7ECED" fill-opacity=".98"/><path d="M96 201l-36 21 115-16z" fill="#FDFEFF" fill-opacity=".76"/><path d="M179 101l-61 17 2-115z" fill="#010000" fill-opacity=".58"/><path d="M136 122l-79 62 56 21z" fill="#000F33" fill-opacity=".58"/><path d="M198-104L10 15l173-8z" fill="#ECEDED"/><path d="M5 17l65 117L55 7z" fill="#011F1C" fill-opacity=".53"/><path d="M-22 233l74 22 69-22z" fill="#64C0ED" fill-opacity=".76"/><path d="M124 111l29 44 62-36z" fill="#E8FFCB" fill-opacity=".55"/><path d="M104 173l-15 9 13 9z" fill="#D1E6FB" fill-opacity=".56"/><path d="M64 154l5-46-89 14z" fill="#E8FFB7" fill-opacity=".51"/><path d="M169 174l-51-12 19 66z" fill="#B4D8FF" fill-opacity=".46"/><path d="M19 226l-9-69 46-12z" fill="#001035" fill-opacity=".57"/><path d="M-6 206l41-1-57 29z" fill="#FFFDFB" fill-opacity=".68"/><path d="M81 113L16 22l-7 88z" fill="#002F40" fill-opacity=".64"/><path d="M161 41l16-14-37-45z" fill="#D9E6EA" fill-opacity=".72"/><path d="M152 199l35 10-19 4z" fill="#FFF" fill-opacity=".54"/><path d="M137 52L123 9 80 38z" fill="#090200" fill-opacity=".52"/><path d="M63 95l9-72 65 62z" fill="#F4A57B" fill-opacity=".59"/><path d="M113 202l-4 19 20-3z" fill="#FFF" fill-opacity=".55"/><path d="M171 110l-64 3 66-84z" fill="#0E180F" fill-opacity=".72"/><path d="M173 283l3-50H72z" fill="#98F4FF" fill-opacity=".41"/><path d="M14 19L3 12h28z" fill="#051000" fill-opacity=".54"/><path d="M42 10L15 23l39 3z" fill="#C5BFC0" fill-opacity=".59"/><path d="M112 221l26-20-108 4z" fill="#FEFDFE" fill-opacity=".77"/><path d="M70 233l39-15 31 15z" fill-opacity=".62"/><path d="M44 208l34 1-21 45z" fill="#3C4856" fill-opacity=".39"/><path d="M66 234l68-14H71z" fill-opacity=".52"/><path d="M101 45l-27-7 66-22z" fill="#242019" fill-opacity=".74"/><path d="M61 139l28 44 7-36z" fill="#000B3C" fill-opacity=".6"/><path d="M179 192l-14 18 15 20z" fill="#FFF" fill-opacity=".48"/><path d="M43 204l-21-37-14 39z" fill="#020000" fill-opacity=".62"/><path d="M107 153l-54-37 79-47z" fill="#C87847" fill-opacity=".58"/><path d="M171 205l1-59-12 49z" fill="#000109" fill-opacity=".67"/><path d="M116 103l-30 24 26-7z" fill="#190C03" fill-opacity=".5"/><path d="M26 142l57-1-21 85z" fill="#3D8BFF" fill-opacity=".4"/><path d="M138 42l2-22 32 15z" fill="#BBCADC" fill-opacity=".63"/><path d="M125 118l40 51-55-5z" fill="#00237A" fill-opacity=".51"/><path d="M101 203l21-84v81z" fill="#0C0300" fill-opacity=".49"/><path d="M76 68L55 39l33 4z" fill="#FFF6EA" fill-opacity=".54"/><path d="M123 159l-2 34 19-11z" fill="#D9EAFF" fill-opacity=".58"/><path d="M10 249l-3-9 24 5z" fill="#007EBF" fill-opacity=".52"/><path d="M72 122l10 83 13-39z" fill="#0F1016" fill-opacity=".58"/><path d="M178 247l-16-16-18 71z" fill="#FFDED7" fill-opacity=".67"/><path d="M10 111v53l55-49z" fill="#D4DB72" fill-opacity=".51"/><path d="M58 125l-44 25 46-9z" fill="#B4E2FF" fill-opacity=".57"/><path d="M136 10l-62 1-1 18z" fill="#1E2615" fill-opacity=".57"/><path d="M128 218l18-22 16 4z" fill="#002A7B" fill-opacity=".49"/><path d="M163 175l-28-34 38 6z" fill="#3367BF" fill-opacity=".64"/></svg>