<svg xmlns="http://www.w3.org/2000/svg" viewBox="0 0 181.239 256" clip-path="url(#a)" width="320" height="450"><defs><clipPath id="a" clipPathUnits="objectBoundingBox"><path d="M0 0h181.239v256H0z"/></clipPath></defs><path fill="transparent" d="M0 0h181.239v256H0z"/><path d="M-193 100L155 9l26 355z" fill="#B0A6A5" fill-opacity=".99"/><path d="M135 146L88 57 78 203z" fill="#60372D" fill-opacity=".72"/><path d="M31 208l48-81-44 25z" fill="#372C2C" fill-opacity=".85"/><path d="M140 141l-12 39 28 3z" fill="#000711" fill-opacity=".68"/><path d="M138 40l36 2-11-30z" fill="#6F7069" fill-opacity=".49"/><path d="M61 47l36-33 32 46z" fill="#431100" fill-opacity=".45"/><path d="M163 209l-35-13 34 35z" fill="#4D5252" fill-opacity=".71"/><path d="M40 231l-28 16 136-1z" fill="#182027" fill-opacity=".56"/><path d="M105 150l9 130 17-126z" fill="#EAEFF6" fill-opacity=".8"/><path d="M12 60V11l39 9z" fill="#636567" fill-opacity=".49"/><path d="M75 123h23L67 80z" fill="#5A3A24" fill-opacity=".69"/><path d="M174 18l-57 78 55 98z" fill="#DDE8F1" fill-opacity=".92"/><path d="M75 153l-7-37-17 20z" fill="#140E0A" fill-opacity=".8"/><path d="M156 154l-32-7 13 37z" fill="#00040C" fill-opacity=".59"/><path d="M60 60l71-2-20 70z" fill="#8E573C" fill-opacity=".64"/><path d="M91 200l68 33H61z" fill="#F5F7F9" fill-opacity=".67"/><path d="M10 248l3-202-183 18z" fill="#F7F8F9" fill-opacity=".99"/><path d="M111 250l34-14-45-3z" fill="#000002" fill-opacity=".46"/><path d="M176-14l-47 63L81 7z" fill="#FEFFFC" fill-opacity=".78"/><path d="M73 82l-3-46-12 47z" fill="#472612" fill-opacity=".57"/><path d="M55-6l12 122-46 25z" fill="#FDFFFF" fill-opacity=".77"/><path d="M144 247l233 35-433-33z" fill="#FCFCFC" fill-opacity=".95"/><path d="M123 69l6-35 106 116z" fill="#FFFFFE" fill-opacity=".85"/><path d="M104 211l-26-66 29 4z" fill="#090311" fill-opacity=".59"/><path d="M82 37L69 67l52-10z" fill="#F89E6E" fill-opacity=".57"/><path d="M168 102l-38 44 45 15z" fill="#B3CDE6" fill-opacity=".81"/><path d="M164 248l-38-14h55z" fill="#930004" fill-opacity=".59"/><path d="M-114 203L33 103v81z" fill="#E1EEF8" fill-opacity=".81"/><path d="M35 218l-23-1 7-32z" fill="#4A545A" fill-opacity=".56"/><path d="M23 205l91-9-64-21z" fill="#E03F22" fill-opacity=".48"/><path d="M82 149l-11 41-14-37z" fill="#FFFBFF" fill-opacity=".68"/><path d="M-19 119l63 33 12-11z" fill="#B3C9DB" fill-opacity=".72"/><path d="M9 235l2 13 26-15z" fill="#000003" fill-opacity=".58"/><path d="M24 183l72-4-1 26z" fill="#CF6A58" fill-opacity=".89"/><path d="M153 190l78-48-76 13z" fill="#EAEFF5" fill-opacity=".9"/><path d="M103 148l32 4-16-31z" fill="#000001" fill-opacity=".64"/><path d="M62 238l8-19 36 27z" fill="#787B7E" fill-opacity=".43"/><path d="M132 230l3-17-15 17z" fill-opacity=".42"/><path d="M120 31l5 42h-14z" fill="#302A25" fill-opacity=".6"/><path d="M68 37l-33-5 4 64z" fill="#FFF" fill-opacity=".77"/><path d="M82 161v14l36-5z" fill="#761831" fill-opacity=".61"/><path d="M62 132l44 17-32-36z" fill="#F39E67" fill-opacity=".51"/><path d="M87 202l52 1-38 32z" fill="#FEFFFF" fill-opacity=".69"/><path d="M124 149l26 37 5-25z" fill="#000D15" fill-opacity=".51"/><path d="M63 126l-19 34 34-12z" fill="#000002" fill-opacity=".48"/><path d="M32 173l27 10-14-39z" fill="#071A23" fill-opacity=".55"/><path d="M60 52l20-27 40 9z" fill="#02090D" fill-opacity=".44"/><path d="M40 186l-19 1 8 27z" fill="#EBEFFA" fill-opacity=".44"/><path d="M32 25l6 87-27-2z" fill="#727C80" fill-opacity=".55"/><path d="M130 221v-19l7 17z" fill-opacity=".46"/></svg>