<svg xmlns="http://www.w3.org/2000/svg" viewBox="0 0 181.641 256" clip-path="url(#a)" width="320" height="450"><defs><clipPath id="a" clipPathUnits="objectBoundingBox"><path d="M0 0h181.641v256H0z"/></clipPath></defs><path fill="#FFF" d="M0 0h181.641v256H0z"/><path d="M173 260l-1-422-284 335z" fill="#688462" fill-opacity=".59"/><path d="M57 57l23-43 58 25z" fill="#0C0D00" fill-opacity=".7"/><path d="M-19 12l297-75-110 73z" fill="#FCFDF8" fill-opacity=".98"/><path d="M61 34l56-14 9 39z" fill-opacity=".51"/><path d="M-14 248l137-47 16 46z" fill="#C5DCEB"/><path d="M140 217l76 8-83 15z" fill="#E1EFFF" fill-opacity=".61"/><path d="M174 204l-8-91-141 89z" fill="#4FACF3" fill-opacity=".56"/><path d="M53 131L5 12h64z" fill="#A6C272" fill-opacity=".86"/><path d="M121 8L55 140l63 15z" fill="#EF4300" fill-opacity=".35"/><path d="M63 118l9 92-250-6z" fill="#88C1E6" fill-opacity=".77"/><path d="M122 33l4 40-27-55z" fill="#001A17" fill-opacity=".52"/><path d="M40 36l46-14L98 5z" fill="#C2D775" fill-opacity=".65"/><path d="M25 159l51-2-2 10z" fill="#204F77" fill-opacity=".54"/><path d="M156 202l43-1 5 43z" fill="#FDFDFE" fill-opacity=".86"/><path d="M68 42l-16 76 122-57z" fill="#D0994C" fill-opacity=".62"/><path d="M97 208l4 8-64 2z" fill="#3E303B" fill-opacity=".58"/><path d="M139 236l-7-29-6 9z" fill="#1B1022" fill-opacity=".57"/><path d="M-168 37L9 23v216z" fill="#FFF"/><path d="M49 218l3-10-66 8z" fill="#100013" fill-opacity=".34"/><path d="M127 247h85l-45 19z" fill="#FFF" fill-opacity=".98"/><path d="M7 202l47 2-42-35z" fill="#057DAC" fill-opacity=".43"/><path d="M65 237l42-20H34z" fill="#FFF" fill-opacity=".64"/><path d="M105 103l67 32V29z" fill="#B1CC50" fill-opacity=".61"/><path d="M80 203l58-3-23 21z" fill="#FFF" fill-opacity=".73"/><path d="M153 249l9-15h-9z" fill="#008526" fill-opacity=".54"/><path d="M67 101l39 51-20 18z" fill="#F5A168" fill-opacity=".56"/><path d="M49 145l16 11-2-48z" fill="#FFF7EB" fill-opacity=".76"/><path d="M132 246l-66-15-71 17z" fill="#7DB9E0" fill-opacity=".58"/><path d="M111 17l59-10-8 103z" fill="#C4D985" fill-opacity=".68"/><path d="M7 141l64-32-16-60z" fill="#B1C66D" fill-opacity=".84"/><path d="M76 113l19 9 17-6z" fill="#010E07" fill-opacity=".43"/><path d="M69 203l85 6H-14z" fill="#FFF" fill-opacity=".87"/><path d="M149 208l24-19-10-14z" fill="#087BA7" fill-opacity=".55"/><path d="M178 234l-70-1 65-7z" fill="#FDFCFD" fill-opacity=".74"/><path d="M103 66l21 3-17 7z" fill="#48302C" fill-opacity=".5"/><path d="M109 103l-8 29 24-41z" fill="#55392B" fill-opacity=".41"/><path d="M148 229l17-4v-15z" fill="#355A84" fill-opacity=".53"/><path d="M162 37l-17 11-7-27z" fill="#A4D4FF" fill-opacity=".62"/><path d="M113 27l14 33-47-39z" fill="#000016" fill-opacity=".39"/><path d="M15 206l67-51 50 44z" fill="#72B3DA" fill-opacity=".61"/><path d="M142 169l-14 15-17-15z" fill="#AF8264" fill-opacity=".46"/><path d="M138 249l17-15H91z" fill="#63AEE2" fill-opacity=".58"/><path d="M130 141l-8-25-8 33z" fill="#EDF2FF" fill-opacity=".65"/><path d="M75 31L61 60l7 11z" fill="#282007" fill-opacity=".48"/><path d="M128 206l14 13 15-14z" fill="#E1F2FF" fill-opacity=".51"/><path d="M55 69l40 50 16-73z" fill="#EB8567" fill-opacity=".39"/><path d="M57 210l9 8 17-9z" fill="#271326" fill-opacity=".42"/><path d="M119 114l10 22 21-11z" fill="#8FCEFF" fill-opacity=".55"/><path d="M62 45l9 6 4-32z" fill="#0B2F27" fill-opacity=".47"/><path d="M101 78L69 47h26z" fill="#FFA575" fill-opacity=".51"/></svg>