<svg xmlns="http://www.w3.org/2000/svg" viewBox="0 0 181.641 256" clip-path="url(#a)" width="320" height="450"><defs><clipPath id="a" clipPathUnits="objectBoundingBox"><path d="M0 0h181.641v256H0z"/></clipPath></defs><path fill="#FFF" d="M0 0h181.641v256H0z"/><path d="M92 6l113 227-210-25z" fill="#470C00" fill-opacity=".59"/><path d="M100 159L7 179l7-33z" fill="#491914" fill-opacity=".78"/><path d="M47 253l-59-20 153 2z" fill="#B03959" fill-opacity=".72"/><path d="M142 45l-28 73 69 35z" fill="#FDFCFB" fill-opacity=".94"/><path d="M82 111L9-13l7 164z" fill="#E9D3D8"/><path d="M158 248l3-16-82 14z" fill="#72031B" fill-opacity=".6"/><path d="M68 35l64 25-22-36z" fill="#543115" fill-opacity=".66"/><path d="M166 246l1-15 9 16z" fill="#D0180F" fill-opacity=".7"/><path d="M173 201L5 195l167-53z" fill="#380D08" fill-opacity=".69"/><path d="M74 138l60-84-65-18z" fill="#B97D53" fill-opacity=".88"/><path d="M144 61l33-41-46-10z" fill="#A4232C" fill-opacity=".53"/><path d="M133 204l28 19-30 6z" fill="#F2FAFF" fill-opacity=".6"/><path d="M-18 216l19-76 14 91z" fill="#FBFBFB" fill-opacity=".94"/><path d="M168 233l118 16-112-79z" fill="#FDFEFF" fill-opacity=".89"/><path d="M57 217l-44 1 1-66z" fill="#332726" fill-opacity=".55"/><path d="M123 233l-62-29 69-4z" fill="#F0FBFF" fill-opacity=".66"/><path d="M146 134l30 73-147-66z" fill="#52221A" fill-opacity=".74"/><path d="M116 163l18-22 6 36z" fill="#998978" fill-opacity=".49"/><path d="M100 23l25 18-53-5z" fill="#171919" fill-opacity=".62"/><path d="M-42 212l179-7-95-1z" fill="#FAFBFB" fill-opacity=".92"/><path d="M43 137l74-45 9 49z" fill="#9C643B" fill-opacity=".76"/><path d="M161 99l8-51-48 4z" fill="#FDFEFD" fill-opacity=".78"/><path d="M59 209l53 1-2 10z" fill="#00090F" fill-opacity=".41"/><path d="M103 191l-44 6 65 4z" fill="#AEBEB2" fill-opacity=".53"/><path d="M169 149l115-20-166-39z" fill="#FEFEFE" fill-opacity=".92"/><path d="M171 201l-17 3 51 26z" fill="#FFF" fill-opacity=".63"/><path d="M127 210l8 4-12 21z" fill="#11232F" fill-opacity=".45"/><path d="M32 247l-49 28 126-27z" fill="#FEFEFE"/><path d="M202 14l11 42-64-45z" fill="#F3DED5" fill-opacity=".86"/><path d="M155-14L52-43l30 74z" fill="#FCFDFD" fill-opacity=".96"/><path d="M117 41l-34 4 12 36z" fill="#F7AB7C" fill-opacity=".61"/><path d="M165 216l8 12-10 3z" fill="#F9FEFF" fill-opacity=".54"/><path d="M8 119l31-31L28-5z" fill="#C36E85" fill-opacity=".47"/><path d="M24 206L9 174l67 22z" fill="#330D08" fill-opacity=".72"/><path d="M12 236l14 12-20-3z" fill="#A31439" fill-opacity=".68"/><path d="M101 73l15-18 22 27z" fill="#9E6740" fill-opacity=".55"/><path d="M129 124l11 12-36 10z" fill="#350000" fill-opacity=".49"/><path d="M71 109l12-4 6 22z" fill="#3C2610" fill-opacity=".54"/><path d="M117 138l-54-19 27 25z" fill="#E2A870" fill-opacity=".45"/><path d="M187 84l-58-3 11-37z" fill="#FFFFFE" fill-opacity=".89"/><path d="M148 51l14-5-30-20z" fill="#A20726" fill-opacity=".48"/><path d="M65 55l13-27-9 50z" fill="#2D2114" fill-opacity=".43"/><path d="M146 212v7l25-7z" fill="#8A0B36" fill-opacity=".64"/><path d="M174 191l-69-5 42 22z" fill="#3D120E" fill-opacity=".83"/><path d="M86 179v-17l-33 14z" fill="#928D87" fill-opacity=".62"/><path d="M130 211l-8 5 14 12z" fill="#32373C" fill-opacity=".56"/><path d="M102 149l73 4-27-18z" fill="#420500" fill-opacity=".45"/><path d="M77 229l-23-25-27 27z" fill="#AB798E" fill-opacity=".33"/><path d="M53 235l91-2 13 4z" fill="#9B082E" fill-opacity=".62"/><path d="M74 119L53 40 13 149z" fill="#FFF" fill-opacity=".74"/></svg>