<svg xmlns="http://www.w3.org/2000/svg" viewBox="0 0 320 450" clip-path="url(#a)" width="320" height="450"><defs><clipPath id="a" clipPathUnits="objectBoundingBox"><path d="M0 0h320v450H0z"/></clipPath></defs><path fill="transparent" d="M0 0h320v451H0z"/><path d="M101 30l180-6-137 383z" fill="#A48579" fill-opacity=".97"/><path d="M-34 299l170-86 6 324z" fill="#86A3BE" fill-opacity=".89"/><path d="M352 436l-356-2 262-250z" fill="#96AAC2" fill-opacity=".89"/><path d="M100 85l133-18-90-48z" fill="#010000" fill-opacity=".7"/><path d="M110 359l76-4-37-62z" fill="#FF3635" fill-opacity=".63"/><path d="M289 412l-33 26-113-26z" fill="#13B1DE" fill-opacity=".72"/><path d="M287 419l22-155-124-43z" fill="#0C83C5" fill-opacity=".48"/><path d="M263 323l-62-32-76 50z" fill="#D2454F" fill-opacity=".9"/><path d="M229 99L107 43l91-15z" fill="#190A05" fill-opacity=".63"/><path d="M224 48l113 167-108-56z" fill="#F1F6FA" fill-opacity=".93"/><path d="M78 386l6-84 54-2z" fill="#F40000" fill-opacity=".63"/><path d="M448 288L212 158l-3 72z" fill="#F0F7FA" fill-opacity=".91"/><path d="M145 435l-20 74-62-74z" fill="#FEFEFE"/><path d="M15 195l25-319 33 317z" fill="#1982AD" fill-opacity=".37"/><path d="M170 384v-16L6 371z" fill="#5C5753" fill-opacity=".74"/><path d="M257 108l60-65-105-21z" fill="#74AED8" fill-opacity=".91"/><path d="M189 353l-16-3 51-24z" fill="#FF1912" fill-opacity=".47"/><path d="M172 2l87 5-36 54z" fill="#F9FBFC" fill-opacity=".87"/><path d="M58 365l53 8-1-21z" fill="#FEFEFA" fill-opacity=".75"/><path d="M246 356l-84-2 8 75z" fill="#FFF" fill-opacity=".72"/><path d="M156 35l-42 7-7 88z" fill="#251008" fill-opacity=".59"/><path d="M250 302l-208-4 50-64z" fill="#61A9D2" fill-opacity=".97"/><path d="M141 28l40-3-61-21z" fill="#F8F9FB" fill-opacity=".7"/><path d="M17 405l-1-136-62 10z" fill="#FBFDFE"/><path d="M266 408l7 32 10-18z" fill="#0A9F38" fill-opacity=".6"/><path d="M202 357l34-61 20 29z" fill="#E11F27" fill-opacity=".67"/><path d="M111 372l38 39-131 1z" fill="#E0FBFE" fill-opacity=".72"/><path d="M40 133l16 15-4-51z" fill="#140000" fill-opacity=".58"/><path d="M42 29L156-3-83 1z" fill="#FEFEFE" fill-opacity=".97"/><path d="M253 305l-86-5 5 36z" fill="#E1151E" fill-opacity=".63"/><path d="M225 360l19 32-14 10z" fill-opacity=".52"/><path d="M276 393l-6-12 6-1z" fill="#FFE" fill-opacity=".57"/><path d="M293 36l-26-17 23 69z" fill="#055DAB" fill-opacity=".56"/><path d="M94 135l108 119 9-182z" fill="#F39358" fill-opacity=".49"/><path d="M194 439l4-20-23-10z" fill="#00A2E4" fill-opacity=".65"/><path d="M-38 418l142-35H25z" fill="#ECF6FA" fill-opacity=".99"/><path d="M202 358l-3-23 21-20z" fill="#EEFBF5" fill-opacity=".73"/><path d="M286 362l71-80-39 190z" fill="#FBFFFF" fill-opacity=".78"/><path d="M176 409l44 28-79-5z" fill="#00BDFD" fill-opacity=".4"/><path d="M135 27l-86-1 27 43z" fill="#E4E8EB"/><path d="M292 348l-1 15-38 8z" fill="#FFFFF9" fill-opacity=".61"/><path d="M52 122l2-21H42z" fill-opacity=".55"/><path d="M130 408l28 26-124 1z" fill="#01C0FF" fill-opacity=".52"/><path d="M243 81l54-16-18 22z" fill="#1F5FA4" fill-opacity=".7"/><path d="M242 411l-58 1 16-63z" fill="#FFF" fill-opacity=".73"/><path d="M90 28L22 66l-1-38z" fill="#A6B0B6" fill-opacity=".67"/><path d="M221 406l4-5-9-2z" fill="#140F0E" fill-opacity=".52"/><path d="M155 281l65-63-105-6z" fill="#FD9C68" fill-opacity=".58"/><path d="M250 367l2-25-20 11z" fill="#F1030D" fill-opacity=".62"/><path d="M228 226l-33-3 61 23z" fill="#137AB6" fill-opacity=".46"/></svg>