<svg xmlns="http://www.w3.org/2000/svg" viewBox="0 0 193 256" clip-path="url(#a)" width="320" height="450"><defs><clipPath id="a" clipPathUnits="objectBoundingBox"><path d="M0 0h193v256H0z"/></clipPath></defs><path fill="#FFF" d="M0 0h193v256H0z"/><path d="M68-50l-191 261 334 5z" fill="#4B320D" fill-opacity=".61"/><path d="M184 66l-2 149-78-135z" fill="#313516" fill-opacity=".29"/><path d="M119 167l-179 76 272 6z" fill="#3C5F54" fill-opacity=".4"/><path d="M50 5l-9 125 30 3z" fill="#040D10" fill-opacity=".66"/><path d="M96 44l68-59L0-4z" fill="#D5EEFF" fill-opacity=".78"/><path d="M-13 193l56-54L-7 22z" fill="#D8E1DA" fill-opacity=".83"/><path d="M165 132l31 36-80-30z" fill="#FFFC97" fill-opacity=".62"/><path d="M9 9l72 1-71 101z" fill="#003755" fill-opacity=".45"/><path d="M114 38l-43 8 63 23z" fill="#000021" fill-opacity=".56"/><path d="M70 86l-9-45L9 76z" fill="#23231E" fill-opacity=".81"/><path d="M71 56l33-55-52 34z" fill="#BFD8EE" fill-opacity=".64"/><path d="M10 99L-100-2 10 267z" fill="#FFF" fill-opacity=".96"/><path d="M184 244l-1-23-27 27z" fill="#7D2728" fill-opacity=".47"/><path d="M162 220l-5-61 24 3z" fill="#020538" fill-opacity=".73"/><path d="M79 142l35-1 7-23z" fill="#290907" fill-opacity=".6"/><path d="M56 150l11 67 19-54z" fill="#05043D" fill-opacity=".76"/><path d="M78 218l32-7-11-75z" fill="#FFBB38" fill-opacity=".75"/><path d="M32 204L7 163l27-4z" fill="#000036" fill-opacity=".72"/><path d="M122 137l33 91 3-78z" fill="#FFBB2D" fill-opacity=".69"/><path d="M57 118l-28 88 29 18z" fill="#FFC93F" fill-opacity=".7"/><path d="M81 49l-21 56 69 3z" fill="#FF9870" fill-opacity=".49"/><path d="M182 208l17 51-12-140z" fill="#FFF" fill-opacity=".79"/><path d="M72 21l28-14-3 14z" fill="#036CB5" fill-opacity=".56"/><path d="M57 213l3-46 27 47z" fill="#020246" fill-opacity=".59"/><path d="M106 220l28-40-12-45z" fill="#040134" fill-opacity=".71"/><path d="M132 84l87-97-73 108z" fill="#EEF0F1" fill-opacity=".87"/><path d="M154 88l-52 42 51 5z" fill="#313B2D" fill-opacity=".61"/><path d="M161 86l24 7-4-25z" fill="#1C1B21" fill-opacity=".41"/><path d="M132 148l-25 18 26 20z" fill="#0D0F2E" fill-opacity=".75"/><path d="M0 118l42 9-2-24z" fill="#EAE7E3" fill-opacity=".67"/><path d="M10 28v73L-104-15z" fill="#FFF" fill-opacity=".93"/><path d="M71 20L13 8l-3 13z" fill="#5CABE4" fill-opacity=".74"/><path d="M86 49l-12-4-22 42z" fill="#000003" fill-opacity=".42"/><path d="M135 78l-12-29 1 50z" fill="#120A14" fill-opacity=".66"/><path d="M80 145L5 164l27-33z" fill="#F3D164" fill-opacity=".67"/><path d="M130 230l6-18 59 3z" fill="#FFFFFB" fill-opacity=".67"/><path d="M10 203l45 31-47 15z" fill="#008B6C" fill-opacity=".48"/><path d="M169 227l1 11-83-9z" fill="#006CAC" fill-opacity=".67"/><path d="M37 235l-14-4 10-19z" fill="#007C5F" fill-opacity=".55"/><path d="M46 73L11 44l-1 45z" fill="#1A1E1E" fill-opacity=".72"/><path d="M69 228l2 15-22-17z" fill="#0068BF" fill-opacity=".55"/><path d="M23 179l-12 36 18 17z" fill="#E8AC1F" fill-opacity=".5"/><path d="M110 213l-2-52 20 51z" fill="#00003D" fill-opacity=".54"/><path d="M82 201l-23-8 24-16z" fill="#0D0E41" fill-opacity=".72"/><path d="M92 25l31 24 80-171z" fill="#F3F4F3" fill-opacity=".9"/><path d="M61 137l62 6-26 43z" fill="#FD9D4B" fill-opacity=".46"/><path d="M17 49l17-28 12 40z" fill="#DCC671" fill-opacity=".45"/><path d="M56 75l-44 5 44 34z" fill="#5B6442" fill-opacity=".84"/><path d="M161 242l-33 5 42 23z" fill="#FFFEFF" fill-opacity=".76"/><path d="M10 209l17-36-17-11z" fill="#000037" fill-opacity=".61"/></svg>