<svg xmlns="http://www.w3.org/2000/svg" viewBox="0 0 320 450" clip-path="url(#a)" width="320" height="450"><defs><clipPath id="a" clipPathUnits="objectBoundingBox"><path d="M0 0h320v450H0z"/></clipPath></defs><path fill="transparent" d="M0 0h320v451H0z"/><path d="M631 26L15 724l2-704z" fill="#836476" fill-opacity=".85"/><path d="M302 423L80 219l224 32z" fill="#362A3A" fill-opacity=".71"/><path d="M303 445l-14-21 15-22z" fill="#C51B18" fill-opacity=".62"/><path d="M8 363l213-10L74 210z" fill="#B0000D" fill-opacity=".65"/><path d="M233 92l-132-5 70-57z" fill="#090A00" fill-opacity=".69"/><path d="M322 337l139-470-239 260z" fill="#CBEAFF" fill-opacity=".7"/><path d="M107 132l25-98 7 105z" fill="#020600" fill-opacity=".56"/><path d="M190 393l60-39-133 5z" fill="#F8FDFF" fill-opacity=".9"/><path d="M272 358l55-6 24 60z" fill="#F9FDFD" fill-opacity=".88"/><path d="M15 409l222-28 61 30z" fill="#0965AB" fill-opacity=".86"/><path d="M77 275L50 18l79 3z" fill="#9CD2FF" fill-opacity=".58"/><path d="M168 311l2-55-159 5z" fill="#D00522" fill-opacity=".85"/><path d="M188 211l-59-66-7 100z" fill="#472400" fill-opacity=".52"/><path d="M291 435H-97l637 89z" fill="#FEFEFE"/><path d="M219 439l58-27H100z" fill="#FF2434" fill-opacity=".62"/><path d="M271 90l17-29-48 3z" fill="#570000" fill-opacity=".4"/><path d="M210 354l21 33h-44z" fill="#FFF" fill-opacity=".75"/><path d="M304 259v225L362-4z" fill="#FEFEFE"/><path d="M168 127l-56 26 9-43z" fill="#523728" fill-opacity=".78"/><path d="M262 16L71 21l165 34z" fill="#95BBDE" fill-opacity=".86"/><path d="M117 435h46l-43-25z" fill="#FF2737" fill-opacity=".75"/><path d="M163 313l43-97 41 26z" fill="#18243B" fill-opacity=".76"/><path d="M220 132l3-45-48 44z" fill="#5A340D" fill-opacity=".62"/><path d="M267 389l-34-36 12 33z" fill="#EBF6FB" fill-opacity=".76"/><path d="M121 357l22 12-160-1z" fill="#FEFCFB" fill-opacity=".88"/><path d="M148 300l-89 32 216-5z" fill="#C3AD8E" fill-opacity=".54"/><path d="M117 142l5 80-213 66z" fill="#AFDAF6" fill-opacity=".52"/><path d="M240 55l49 10-23-51z" fill="#550101" fill-opacity=".36"/><path d="M283 362l2-11-40 26z" fill="#F4F7F7" fill-opacity=".84"/><path d="M133 298L14 331l27-83z" fill="#B40618" fill-opacity=".72"/><path d="M18 387l150 2-152 21z" fill="#076AB7" fill-opacity=".84"/><path d="M17 357l54 4-46-67z" fill="#2A0000" fill-opacity=".58"/><path d="M24 407l-9 25 70 5z" fill="#FF283A" fill-opacity=".69"/><path d="M266 14l59 92 36-86z" fill="#DBE9F3" fill-opacity=".77"/><path d="M275 403l-12 36 23-7z" fill="#00A24B" fill-opacity=".49"/><path d="M148 371l9 16 45-1z" fill="#FFF" fill-opacity=".74"/><path d="M300 417l-35-38 44 4z" fill="#65A4D4" fill-opacity=".54"/><path d="M302 55l3-38h-33z" fill="#679CD5" fill-opacity=".53"/><path d="M293 410l-21-1 20 23z" fill="#DCF8ED" fill-opacity=".59"/><path d="M302 245l4 105-70 9z" fill="#00122B" fill-opacity=".48"/><path d="M165 415l20 24-2-22z" fill="#FFE4E6" fill-opacity=".52"/><path d="M304 40l-3 229-111-70z" fill="#9CB4D1" fill-opacity=".89"/><path d="M157 357l37-40 51 35z" fill="#0D2F4C" fill-opacity=".72"/><path d="M58 411l-44 6 103-1z" fill="#F3051D" fill-opacity=".83"/><path d="M119 132l104 1-27 103z" fill="#FE9846" fill-opacity=".44"/><path d="M215 308l-1 26 35-22z" fill="#FFE17D" fill-opacity=".52"/><path d="M170 35l57 53-16-29z" fill="#1E252A" fill-opacity=".76"/><path d="M178 176l-32-95 61 73z" fill="#FFB07E" fill-opacity=".59"/><path d="M219 120l-52-39-38 37z" fill="#FFC782" fill-opacity=".53"/><path d="M271 93l-48 51V60z" fill="#9AC9F0" fill-opacity=".66"/></svg>