<svg xmlns="http://www.w3.org/2000/svg" viewBox="0 0 181.641 256" clip-path="url(#a)" width="320" height="450"><defs><clipPath id="a" clipPathUnits="objectBoundingBox"><path d="M0 0h181.641v256H0z"/></clipPath></defs><path fill="#FFF" d="M0 0h181.641v256H0z"/><path d="M79 161L46 14l131 6z" fill="#957065" fill-opacity=".93"/><path d="M248 130L91 327-93 114z" fill="#834963" fill-opacity=".8"/><path d="M7 142l65-21L13-44z" fill="#A1AFC4" fill-opacity=".99"/><path d="M97 221l81-17-116-2z" fill="#F0FBF9" fill-opacity=".74"/><path d="M80 14l47 15-67 34z" fill="#190D06" fill-opacity=".65"/><path d="M4 148l77-31-41 96z" fill="#C50021" fill-opacity=".7"/><path d="M221 250l-260 35 64-39z" fill="#F9FBFB" fill-opacity=".98"/><path d="M171 201l1-66-85 17z" fill="#183D6A" fill-opacity=".77"/><path d="M29 202l66 1-2-83z" fill="#DE2B41" fill-opacity=".72"/><path d="M271 180l-157-56 21-92z" fill="#C0CADF" fill-opacity=".86"/><path d="M175 216l-4 35-47-63z" fill="#825161" fill-opacity=".7"/><path d="M172 66l126 133-125 37z" fill="#FBF8FA" fill-opacity=".99"/><path d="M13-62l61 81-27 84z" fill="#D3DCED" fill-opacity=".83"/><path d="M10 206l-1-55 27 54z" fill="#0D0714" fill-opacity=".74"/><path d="M10 156L6 325-9 25z" fill="#FCFEFE" fill-opacity=".95"/><path d="M106 9l26 38 7-36z" fill="#C2D5EC" fill-opacity=".81"/><path d="M158 2l-7 45 23 28z" fill="#002A57" fill-opacity=".29"/><path d="M47 211l58-10-90 6z" fill="#FFF" fill-opacity=".72"/><path d="M174 152l-44-24-20 19z" fill="#001E4C" fill-opacity=".7"/><path d="M162 7l6 66 11-59z" fill="#CEDAE7" fill-opacity=".84"/><path d="M158 27l-18 23-6-30z" fill="#F74000" fill-opacity=".47"/><path d="M120 237l-84-15 90-3z" fill="#B60035" fill-opacity=".76"/><path d="M101 145l23 55-33 3z" fill="#0C3D6C" fill-opacity=".65"/><path d="M128 62L93 7l33 27z" fill="#231B16" fill-opacity=".57"/><path d="M126 171l2 17 20-11z" fill="#E3D1B8" fill-opacity=".62"/><path d="M22 139l-12-14-1 33z" fill="#561800" fill-opacity=".53"/><path d="M45 234l-35 18-1-18z" fill="#1E5374" fill-opacity=".67"/><path d="M9 17l5 56 41-46z" fill="#5F718D" fill-opacity=".41"/><path d="M86 152l-32-8 2-22z" fill="#18141E" fill-opacity=".64"/><path d="M94 60l7 95 24-29z" fill="#D69473" fill-opacity=".84"/><path d="M132 208l31 39H98z" fill="#012342" fill-opacity=".37"/><path d="M16 122l-4-56 28 14z" fill="#3D5C83" fill-opacity=".5"/><path d="M144 211l-15 17 32-26z" fill="#FFF" fill-opacity=".5"/><path d="M65 10l-66 4L85-87z" fill="#FCFCFD" fill-opacity=".98"/><path d="M5 242l18 5 68-1z" fill="#174467" fill-opacity=".79"/><path d="M82 84l50-16-12 37z" fill="#F79D75" fill-opacity=".45"/><path d="M71 48l52-1-15 21z" fill="#FFBB93" fill-opacity=".65"/><path d="M123 54L84 14l23-1z" fill="#402D24" fill-opacity=".52"/><path d="M173 191l-2-25-8 38z" fill="#BA0000" fill-opacity=".55"/><path d="M66 40l7 116 37-38z" fill="#8D5539" fill-opacity=".67"/><path d="M30 217l59-9 4 9z" fill="#5F6564" fill-opacity=".82"/><path d="M34 16l63-7-24 14z" fill="#D3DCEC" fill-opacity=".8"/><path d="M155 8l11 10-42-2z" fill="#DD9D8A" fill-opacity=".48"/><path d="M58 129l15-39-42-24z" fill="#C5D2EB" fill-opacity=".55"/><path d="M136 209l26-7 7-43z" fill="#28476D" fill-opacity=".9"/><path d="M99 77l6-12 27 3z" fill="#4E200B" fill-opacity=".56"/><path d="M73 233l15 2-27 14z" fill="#004B73" fill-opacity=".47"/><path d="M82 182l-40 2 9 9z" fill="#33888F" fill-opacity=".48"/><path d="M128 149l-10-28 28 20z" fill="#0A2A52" fill-opacity=".72"/><path d="M154 433l53-186H53z" fill="#FEFEFE"/></svg>