<svg xmlns="http://www.w3.org/2000/svg" viewBox="0 0 181.641 256" clip-path="url(#a)" width="320" height="450"><defs><clipPath id="a" clipPathUnits="objectBoundingBox"><path d="M0 0h181.641v256H0z"/></clipPath></defs><path fill="transparent" d="M0 0h181.641v256H0z"/><path d="M103-8l-203 252 334 5z" fill="#1A2D3C" fill-opacity=".65"/><path d="M272 285l-99-155v118z" fill="#FEFEFE"/><path d="M8 17l1 102L106 4z" fill="#6291B2" fill-opacity=".52"/><path d="M13 216L0 107v174z" fill="#FFF" fill-opacity=".85"/><path d="M62 108L60-14 30 102z" fill="#C9DEF1" fill-opacity=".9"/><path d="M39 205l83 16 19-21z" fill="#F2F1F2" fill-opacity=".79"/><path d="M171 180l2-75-140 71z" fill="#19405F" fill-opacity=".74"/><path d="M127 19L64 32l-3 45z" fill="#210000" fill-opacity=".5"/><path d="M153 9l-28 30 52 25z" fill="#495A51" fill-opacity=".44"/><path d="M105 235l58-15H1z" fill="#050306" fill-opacity=".68"/><path d="M197 108l-68-77 4 79z" fill="#CEE6F8" fill-opacity=".64"/><path d="M135 163l11 33-21-5z" fill="#FFF5D3" fill-opacity=".6"/><path d="M61 12l129-74-49 89z" fill="#E3EEF7" fill-opacity=".95"/><path d="M85 23l45 12 1 46z" fill="#2D170D" fill-opacity=".62"/><path d="M77 203l1-105-71 40z" fill="#1D3543" fill-opacity=".72"/><path d="M140 81l-73 60L87 38z" fill="#FF8D4F" fill-opacity=".45"/><path d="M71 126l29 24 30-23z" fill="#D78E5F" fill-opacity=".68"/><path d="M99 232l75-11-3 12z" fill-opacity=".46"/><path d="M40 152L24 3 6 121z" fill="#00564C" fill-opacity=".34"/><path d="M175 200l-9-35-34 39z" fill="#001E55" fill-opacity=".55"/><path d="M14 77l53 8 6 25z" fill="#CBDBE9" fill-opacity=".66"/><path d="M29 87l2-33-7 6z" fill="#331716" fill-opacity=".51"/><path d="M15 205l55 2-75 4z" fill="#FFF" fill-opacity=".78"/><path d="M8 206l53-5-50-62z" fill="#001349" fill-opacity=".59"/><path d="M87 39l18 107 15-16z" fill="#E49A73" fill-opacity=".56"/><path d="M-24 308L9 194V56z" fill="#FFF"/><path d="M97 137l-61-24 55-19z" fill="#63521E" fill-opacity=".46"/><path d="M100 67h15l-12 16z" fill="#54291E" fill-opacity=".5"/><path d="M131 62l-2 43 79 5z" fill="#CEE2EE" fill-opacity=".57"/><path d="M74 138l59 53-52 13z" fill="#0051B0" fill-opacity=".59"/><path d="M127 198l14 24 6-10z" fill="#FBF6F4" fill-opacity=".62"/><path d="M98 216l3-6-43-1z" fill="#6B6A6D"/><path d="M91 70v16L58 56z" fill="#5E351D" fill-opacity=".62"/><path d="M21 230l85 16-91 2z" fill="#4093D9" fill-opacity=".63"/><path d="M12 165l31 25-11-63z" fill="#0755BB" fill-opacity=".49"/><path d="M174 248l-17-20 9 49z" fill="#FFF5E9" fill-opacity=".54"/><path d="M115 153l60-20-50-35z" fill="#114300" fill-opacity=".42"/><path d="M81 228l-76 2 54 3z" fill-opacity=".52"/><path d="M173 243l-8 8 3-22z" fill="#F42F23" fill-opacity=".62"/><path d="M137 131l36 14-1-41z" fill="#244500" fill-opacity=".51"/><path d="M124 231l44 17-143-11z" fill="#4098DB" fill-opacity=".6"/><path d="M239 194l-89 11 36 11z" fill="#F1F1F2" fill-opacity=".89"/><path d="M48 219l-2-6 16 8z" fill="#FFF" fill-opacity=".48"/><path d="M138 27l14-6-13 24z" fill="#495245" fill-opacity=".54"/><path d="M89 45l20 6-15 42z" fill="#EBB298" fill-opacity=".58"/><path d="M45 185l-4-7 25 7z" fill="#E8EFF4" fill-opacity=".48"/><path d="M163 25v20l-18 6z" fill="#4A5241" fill-opacity=".48"/><path d="M132 98l42 6-2-80z" fill="#CFDFEE"/><path d="M62 178l-29 13 43-15z" fill="#BFC9D2" fill-opacity=".54"/><path d="M10 85l9-42 10 27z" fill="#C5CEF8" fill-opacity=".4"/></svg>