<svg xmlns="http://www.w3.org/2000/svg" viewBox="0 0 180.506 256" clip-path="url(#a)" width="320" height="450"><defs><clipPath id="a" clipPathUnits="objectBoundingBox"><path d="M0 0h180.506v256H0z"/></clipPath></defs><path fill="transparent" d="M0 0h180.506v256H0z"/><path d="M-243 7l420 15-11 313z" fill="#221326" fill-opacity=".46"/><path d="M126 32v44L49 6z" fill="#1B1500" fill-opacity=".45"/><path d="M91 15l37 47-58-50z" fill="#323C39" fill-opacity=".59"/><path d="M222 197L0 206l48-86z" fill="#230F86" fill-opacity=".48"/><path d="M-5 232l161 2-25-35z" fill="#E2E1E4" fill-opacity=".98"/><path d="M12 250l80-6-85-12z" fill="#2D0A60" fill-opacity=".4"/><path d="M46 86L25 45l49 5z" fill="#EFFEF2" fill-opacity=".59"/><path d="M97 160l28-46 53 55z" fill="#3E368B" fill-opacity=".78"/><path d="M139 212l-9 14-1-17z" fill-opacity=".5"/><path d="M165 245l-256 9 331 5z" fill="#F8F7FA" fill-opacity=".97"/><path d="M10 9L9 217l-177-68z" fill="#F7F8F5" fill-opacity=".99"/><path d="M72 147l104-41L63 22z" fill="#BB9048" fill-opacity=".56"/><path d="M177 43l-55 9 51 94z" fill="#DEFFD2" fill-opacity=".52"/><path d="M116 31l64-19-81 5z" fill="#F2EEE2" fill-opacity=".75"/><path d="M116 226l-69-22 90-2z" fill="#FEFFFF" fill-opacity=".67"/><path d="M88 177l9-17 18 18z" fill="#F9C8B9" fill-opacity=".58"/><path d="M32 24l114 15-80 9z" fill="#001619" fill-opacity=".45"/><path d="M117 117l11-54 49 69z" fill="#AFCC7B" fill-opacity=".77"/><path d="M15-54l67 64-27 8z" fill="#F8F9F8" fill-opacity=".96"/><path d="M34 249l14-16-33 1z" fill="#8D7CA0" fill-opacity=".77"/><path d="M183 91l68-66-107 29z" fill="#EFF5FF" fill-opacity=".64"/><path d="M171 138l-81-34 83 107z" fill="#3B327E" fill-opacity=".48"/><path d="M11 21L9 47l62-6z" fill="#3B5467" fill-opacity=".63"/><path d="M150 234l23-17v16z" fill="#FFF" fill-opacity=".61"/><path d="M148 218l-20-23 35-5z" fill="#2E2783" fill-opacity=".47"/><path d="M88 43L71 69l55-12z" fill="#F4AD95" fill-opacity=".59"/><path d="M202 41l-51-9 16-17z" fill="#FEFEE0" fill-opacity=".57"/><path d="M62 228l-46-8 28-5z" fill="#FAFBFB" fill-opacity=".65"/><path d="M14 144l40 61-46-1z" fill="#1C186D" fill-opacity=".5"/><path d="M69 109l52 13-37 2z" fill="#361202" fill-opacity=".51"/><path d="M153 18l-8-1 4 18z" fill="#D21323" fill-opacity=".57"/><path d="M77 172l7 8-46 5z" fill="#DFE1E3" fill-opacity=".47"/><path d="M40 68L5 151l85-47z" fill="#BEDE61" fill-opacity=".51"/><path d="M178 141l-9 82 77 18z" fill="#F9F9F9" fill-opacity=".97"/><path d="M152 235l21-2 2 13z" fill="#870328" fill-opacity=".43"/><path d="M112 65l16 11-34-2z" fill="#6A3B32" fill-opacity=".58"/><path d="M68 39L-40 69l102 6z" fill="#E9EFFF" fill-opacity=".4"/><path d="M73 175l-24 10 2-10z" fill="#BCB7CE" fill-opacity=".7"/><path d="M81 119l-6 22 27 4z" fill="#E9A487" fill-opacity=".59"/><path d="M58 207l33 9-35 2z" fill="#3D413D" fill-opacity=".47"/><path d="M11 218l3-7 42 5z" fill="#545855" fill-opacity=".54"/><path d="M41 196l34-61-62 9z" fill="#4D3E95" fill-opacity=".47"/><path d="M172 30l-2 21-70-24z" fill="#8B8574" fill-opacity=".52"/><path d="M119 95l-4 23-16 4z" fill="#392301" fill-opacity=".5"/><path d="M132 207l5 9-21 35z" fill="#1B122A" fill-opacity=".42"/><path d="M162 207l-18 8 28 3z" fill="#463168" fill-opacity=".53"/><path d="M172 145l-1-69-48 7z" fill="#A7C16D" fill-opacity=".64"/><path d="M125 49l-9 7 10 5z" fill="#3A343C" fill-opacity=".48"/><path d="M73 209l-29-5-49 5z" fill="#F8F8FD" fill-opacity=".79"/><path d="M88 30l22 12-41 5z" fill="#130206" fill-opacity=".53"/></svg>