<svg xmlns="http://www.w3.org/2000/svg" viewBox="0 0 181.641 256" clip-path="url(#a)" width="320" height="451"><defs><clipPath id="a" clipPathUnits="objectBoundingBox"><path d="M0 0h181.641v256H0z"/></clipPath></defs><path fill="#FFF" d="M0 0h181.641v256H0z"/><path d="M267 200L18-85 3 306z" fill="#430419" fill-opacity=".57"/><path d="M9 114l3 95 127-34z" fill="#560727" fill-opacity=".65"/><path d="M57 23l115 57V7z" fill="#000E2C" fill-opacity=".37"/><path d="M146 247l159 143-333-143z" fill="#FEFEFE"/><path d="M75 222l97-15-92-8z" fill="#F7F1F5" fill-opacity=".8"/><path d="M104 12L-24 36 96-73z" fill="#DCEAF3" fill-opacity=".87"/><path d="M114 148l58-43v102z" fill="#75121C" fill-opacity=".76"/><path d="M234 114L125 35l-1 80z" fill="#AFD4E9" fill-opacity=".64"/><path d="M250 204l-96-3 59 75z" fill="#EBF8FF" fill-opacity=".72"/><path d="M45 202l43-75 11 78z" fill="#FF1043" fill-opacity=".62"/><path d="M3 125l125-33-27 42z" fill="#564304" fill-opacity=".56"/><path d="M126 36L61 69l9-48z" fill="#181308" fill-opacity=".75"/><path d="M173 79v209l53-331z" fill="#FFF" fill-opacity=".99"/><path d="M85-13L41 113l-8-80z" fill="#ADDFFF" fill-opacity=".61"/><path d="M135 205l-9 11 9 15z" fill="#082221" fill-opacity=".53"/><path d="M115 48l-32 5 25 65z" fill="#FDA260" fill-opacity=".55"/><path d="M163 200l-26 9 15-86z" fill="#AC0627" fill-opacity=".72"/><path d="M150 10l-14 23 15 26z" fill="#3D0038" fill-opacity=".42"/><path d="M79 206l-92-2-11 10z" fill="#FFFFFE" fill-opacity=".71"/><path d="M176 246l-24 2 13-18z" fill="#C49BAC" fill-opacity=".85"/><path d="M114 123l56 24 2-37z" fill="#1D550D" fill-opacity=".57"/><path d="M150 204l-8 8-16-24z" fill="#53284A" fill-opacity=".59"/><path d="M54 221l-9-2-2-17z" fill="#E6FFFF" fill-opacity=".61"/><path d="M7 127l33 78L83 97z" fill="#004536" fill-opacity=".4"/><path d="M173 233l-122-1 119-22z" fill="#074898" fill-opacity=".67"/><path d="M129 198l23 22-17 1z" fill="#EBE2DE" fill-opacity=".61"/><path d="M74 109L8-39l1 160z" fill="#BCA1B9" fill-opacity=".44"/><path d="M84 154l31-4-46-2z" fill="#D2C8DC" fill-opacity=".51"/><path d="M64 141l7-6-7-8z" fill="#FFF3FF" fill-opacity=".52"/><path d="M82 58l37-29-31-18z" fill="#0D0700" fill-opacity=".55"/><path d="M154 231l22-16-23-12z" fill="#A24E58" fill-opacity=".45"/><path d="M94 69L64 87l1-24z" fill="#562F00" fill-opacity=".51"/><path d="M38 235l65-15H5z" fill="#085AB3" fill-opacity=".71"/><path d="M122 49L95 74l35 5z" fill="#743A09" fill-opacity=".49"/><path d="M48 204l82-1-5 20z" fill="#FFF" fill-opacity=".68"/><path d="M125 220l-1 14-54-14z" fill="#003496" fill-opacity=".57"/><path d="M125 52l-5-18-16 12z" fill="#060200" fill-opacity=".62"/><path d="M170 204l-15-5 16-42z" fill="#112443" fill-opacity=".67"/><path d="M13 214l-9 58-5-116z" fill="#FAFCFF" fill-opacity=".75"/><path d="M165 165l-34-38-14 34z" fill="#D30129" fill-opacity=".63"/><path d="M144 246l-25-14-44 15z" fill="#FF192D" fill-opacity=".54"/><path d="M80 230v17H2z" fill="#FF3D4F" fill-opacity=".66"/><path d="M26 12L5 37l61-25z" fill="#66758C" fill-opacity=".39"/><path d="M95 10L48-186 8 12z" fill="#FFF" fill-opacity=".95"/><path d="M96 143v63l32-43z" fill="#0B4875" fill-opacity=".55"/><path d="M133 200l-20-28-16 30z" fill="#254168" fill-opacity=".63"/><path d="M15 233L5 248l162-14z" fill="#F55665" fill-opacity=".81"/><path d="M64 144l-15-38-24 11z" fill="#383F06" fill-opacity=".55"/><path d="M93 117L67 76l68 2z" fill="#EC8951" fill-opacity=".47"/><path d="M49 135l-17 5 9 1z" fill="#FFF" fill-opacity=".53"/></svg>