<svg xmlns="http://www.w3.org/2000/svg" viewBox="0 0 181.641 256" clip-path="url(#a)" width="320" height="450"><defs><clipPath id="a" clipPathUnits="objectBoundingBox"><path d="M0 0h181.641v256H0z"/></clipPath></defs><path fill="#FFF" d="M0 0h181.641v256H0z"/><path d="M-132 8l263 364 81-359z" fill="#6C727A" fill-opacity=".82"/><path d="M160 351l-10-153-165 28z" fill="#B2C8DB" fill-opacity=".95"/><path d="M36 173l4 15 123-10z" fill="#FFF8FF" fill-opacity=".77"/><path d="M9 183l159-25-157-43z" fill="#003374" fill-opacity=".6"/><path d="M79 186l29-15-14 48z" fill="#FACDE3" fill-opacity=".6"/><path d="M98 185l44 21 39-15z" fill="#880035" fill-opacity=".69"/><path d="M11 109L-2-57l3 328z" fill="#FDFDFC" fill-opacity=".96"/><path d="M62 202l-60 4 42-22z" fill="#4C001B" fill-opacity=".65"/><path d="M428 97l-255 99-1-189z" fill="#F5F6F6"/><path d="M9 75l-37 55L9-12z" fill="#FFF"/><path d="M172 162V32l-66 87z" fill="#5B6D40" fill-opacity=".8"/><path d="M68 230l-18 18 26-2z" fill="#0055A9" fill-opacity=".49"/><path d="M119 246l6-20 35 21z" fill="#005DA1" fill-opacity=".56"/><path d="M85 22l35 21-44 1z" fill="#211102" fill-opacity=".63"/><path d="M60 168l116 10-43-42z" fill="#1E52A6" fill-opacity=".78"/><path d="M23 14L7 91l70 20z" fill="#003C3B" fill-opacity=".45"/><path d="M8 192l72 11 1-20z" fill="#970237" fill-opacity=".68"/><path d="M29 212l18-10 66 1z" fill="#FFF" fill-opacity=".69"/><path d="M112 201l-22-9 128 8z" fill="#001925" fill-opacity=".53"/><path d="M134 36l-34 130L44 56z" fill="#FF7428" fill-opacity=".3"/><path d="M8 200l5-11 27 14z" fill="#00002D" fill-opacity=".5"/><path d="M68 82l-57-3 63-61z" fill="#3C5B54" fill-opacity=".62"/><path d="M167 230l-2 22 10-11z" fill="#CD0C01" fill-opacity=".55"/><path d="M51 218l66-2-64-8z" fill="#69625E" fill-opacity=".7"/><path d="M169 179L62 168l95 23z" fill="#F9F8FF" fill-opacity=".63"/><path d="M139 216l-12 15 6-23z" fill-opacity=".56"/><path d="M168 206l4 14-32-5z" fill="#32689B" fill-opacity=".47"/><path d="M25 179l-4 17 41-24z" fill="#FFF" fill-opacity=".58"/><path d="M161 20l-28 5 19 17z" fill="#000008" fill-opacity=".55"/><path d="M23 251l50-18-71 3z" fill="#2E7ABB" fill-opacity=".58"/><path d="M8 156l2-44 96 5z" fill="#69671C" fill-opacity=".59"/><path d="M19 233l159 2-75 13z" fill="#307AB3" fill-opacity=".65"/><path d="M128-42l43 46-37 22z" fill="#ECEFF1" fill-opacity=".95"/><path d="M-1 247l51 196 114-196z" fill="#FFF" fill-opacity=".99"/><path d="M15 222l-2-16 6 8z" fill="#666465" fill-opacity=".64"/><path d="M63 239l-48-23 78 3z" fill="#FFF" fill-opacity=".44"/><path d="M76 140l-9-19 57 12z" fill="#CE8867" fill-opacity=".66"/><path d="M23 191l-10 2v-31z" fill="#000075" fill-opacity=".5"/><path d="M138 235l18-20-35 17z" fill="#FFFFFC" fill-opacity=".62"/><path d="M74 210l65-6-81-2z" fill="#FFF" fill-opacity=".72"/><path d="M171 189l-83-6 48 12z" fill="#FF1964" fill-opacity=".51"/><path d="M158 172l13 2 1 36z" fill="#001D8E" fill-opacity=".56"/><path d="M127 91L56 78l70-2z" fill="#F7AF95" fill-opacity=".66"/><path d="M93 194l6 10 3-32z" fill="#E3DAE8" fill-opacity=".63"/><path d="M61 217l57 17 11-16z" fill="#FFF" fill-opacity=".68"/><path d="M68 209l-25-7-26 7z" fill="#FFF" fill-opacity=".69"/><path d="M76 73l7-10 13 11z" fill="#451B14" fill-opacity=".49"/><path d="M121 170l-95 4 97-41z" fill="#1B4998" fill-opacity=".88"/><path d="M173 68l-57-32 17 61z" fill="#4B6464" fill-opacity=".75"/><path d="M116 42l-47 8 51 21z" fill="#FFD5B5" fill-opacity=".53"/></svg>