<svg xmlns="http://www.w3.org/2000/svg" viewBox="0 0 181.641 256" clip-path="url(#a)" width="320" height="450"><defs><clipPath id="a" clipPathUnits="objectBoundingBox"><path d="M0 0h181.641v256H0z"/></clipPath></defs><path fill="transparent" d="M0 0h181.641v256H0z"/><path d="M208 247H-29L100-8z" fill="#B1655C" fill-opacity=".9"/><path d="M174 42l-36 9-5-69z" fill="#BA775D" fill-opacity=".79"/><path d="M8 13l3 208L54 11z" fill="#691E2A" fill-opacity=".41"/><path d="M66 168l107-46-2 100z" fill="#840023" fill-opacity=".54"/><path d="M166 208l18 79 4-142z" fill="#FEFFFC" fill-opacity=".81"/><path d="M194 202l-118 1 41 18z" fill="#E7FDF8" fill-opacity=".62"/><path d="M179 6l-48 15 17 37z" fill="#932800" fill-opacity=".35"/><path d="M11 156l-3 98-79-53z" fill="#F8F6F7" fill-opacity=".99"/><path d="M40 15l37 102-45 21z" fill="#DFDCDB" fill-opacity=".93"/><path d="M66-57L48 34l115-21z" fill="#E7E7E6" fill-opacity=".95"/><path d="M130 200l-94-76-28 82z" fill="#820027" fill-opacity=".61"/><path d="M168 29l16 118-70-39z" fill="#DDD" fill-opacity=".89"/><path d="M90 23l35 20-58 3z" fill="#031111" fill-opacity=".78"/><path d="M135 123l6 46-53-45z" fill="#DD9356" fill-opacity=".75"/><path d="M98 237l32-16-138-2z" fill="#FFAD30" fill-opacity=".78"/><path d="M172 132l-34 77 34-9z" fill="#640A17" fill-opacity=".64"/><path d="M126 65l18 54-4-81z" fill="#E9EBEE" fill-opacity=".71"/><path d="M131 233l-3-22 10-6z" fill="#34402E" fill-opacity=".52"/><path d="M115 33l12 20-25-9z" fill="#000800" fill-opacity=".52"/><path d="M36 216l70 1 5-10z" fill="#35616B" fill-opacity=".55"/><path d="M26 207l-16-39 42 27z" fill="#3E0405" fill-opacity=".54"/><path d="M127 180v8l-26 8z" fill="#7BC7F7" fill-opacity=".56"/><path d="M138 48L91 21l43-12z" fill="#D9DEDF" fill-opacity=".65"/><path d="M174 194l44 79-46-112z" fill="#FCFBFC" fill-opacity=".92"/><path d="M68 215l45-13-47 2z" fill="#F4FFFF" fill-opacity=".65"/><path d="M70 202l7 8-28-2z" fill="#FFF" fill-opacity=".46"/><path d="M116 148l-45-38-17 34z" fill="#F8A555" fill-opacity=".59"/><path d="M96 123l23-28 4 25z" fill="#832E00" fill-opacity=".46"/><path d="M70 45l51-4-21-16z" fill="#0D1415" fill-opacity=".54"/><path d="M37 97L8 143l37-7z" fill="#BEB8BA" fill-opacity=".8"/><path d="M144 145l-25 5 27 7z" fill="#ADA07E" fill-opacity=".7"/><path d="M50 211l-43-5 65-3z" fill="azure" fill-opacity=".61"/><path d="M162 245l-10 1 3-17z" fill="#00D56E" fill-opacity=".54"/><path d="M152 223l-16-9 4 23z" fill="#FBBC53" fill-opacity=".72"/><path d="M145 225l-2-14-21-15z" fill="#FFF" fill-opacity=".55"/><path d="M65 62l4-18 11-12z" fill="#2C2C29" fill-opacity=".7"/><path d="M107 192l-39 9 24-24z" fill="#A290AA" fill-opacity=".4"/><path d="M80 196l6 1-17-19z" fill="#75B6E2" fill-opacity=".7"/><path d="M160 234l-4 58 12-62z" fill="#F7F6EB" fill-opacity=".84"/><path d="M17 247l-11-3 114 1z" fill="#A8021F" fill-opacity=".63"/><path d="M142 232l33 2-5-19z" fill="#E89C13" fill-opacity=".41"/><path d="M119 40l20-2 43 60z" fill="#E1E5E9" fill-opacity=".47"/><path d="M-17 229l35-27-14 36z" fill="#FAF9F8" fill-opacity=".81"/><path d="M51 79l68-1-18 47z" fill="#FFB372" fill-opacity=".4"/><path d="M138 17l13-5 25 20z" fill="#D7AA50" fill-opacity=".6"/><path d="M73 65l20-24 23 25z" fill="#FFD594" fill-opacity=".45"/><path d="M94 202l31 18 8-19z" fill="#FFF" fill-opacity=".67"/><path d="M138 219l-117-2 4 3z" fill="#F1FCF4" fill-opacity=".8"/><path d="M102 170l-45-23 20-5z" fill="#9B0025" fill-opacity=".54"/><path d="M171 140l-11 42-29-62z" fill="#AB1139" fill-opacity=".56"/></svg>